<svg width="709" height="749" viewBox="0 0 709 749" fill="none" xmlns="http://www.w3.org/2000/svg">
<path d="M556.725 677.405C551.682 677.405 547.593 673.339 547.593 668.324C547.593 663.309 551.682 659.243 556.725 659.243C561.768 659.243 565.857 663.309 565.857 668.324C565.857 673.323 561.768 677.405 556.725 677.405Z" stroke="#04D361" stroke-width="3" stroke-miterlimit="10" stroke-linecap="round" stroke-linejoin="round"/>
<path d="M550.425 674.888L543.967 681.294" stroke="#04D361" stroke-width="3" stroke-miterlimit="10" stroke-linecap="round" stroke-linejoin="round"/>
<path d="M385.372 18L375.764 27.5541" stroke="#04D361" stroke-width="3" stroke-miterlimit="10" stroke-linecap="round" stroke-linejoin="round"/>
<path d="M385.372 27.5541L375.764 18" stroke="#04D361" stroke-width="3" stroke-miterlimit="10" stroke-linecap="round" stroke-linejoin="round"/>
<path d="M371.617 592.763L362.01 602.317" stroke="#04D361" stroke-width="3" stroke-miterlimit="10" stroke-linecap="round" stroke-linejoin="round"/>
<path d="M371.617 602.317L362.01 592.763" stroke="#04D361" stroke-width="3" stroke-miterlimit="10" stroke-linecap="round" stroke-linejoin="round"/>
<path d="M71.5864 203.274L57.9998 203.274" stroke="#04D361" stroke-width="3" stroke-miterlimit="10" stroke-linecap="round" stroke-linejoin="round"/>
<path d="M64.7944 210.046L64.7944 196.52" stroke="#04D361" stroke-width="3" stroke-miterlimit="10" stroke-linecap="round" stroke-linejoin="round"/>
<path d="M469.022 154.422C464.472 154.422 460.765 150.752 460.765 146.211C460.765 141.686 464.456 138 469.022 138C473.572 138 477.279 141.67 477.279 146.211C477.263 150.752 473.572 154.422 469.022 154.422Z" stroke="#04D361" stroke-width="3" stroke-miterlimit="10" stroke-linecap="round" stroke-linejoin="round"/>
<path d="M633.899 361.169C629.349 361.169 625.642 357.499 625.642 352.958C625.642 348.434 629.333 344.747 633.899 344.747C638.449 344.747 642.156 348.418 642.156 352.958C642.14 357.499 638.449 361.169 633.899 361.169Z" stroke="#04D361" stroke-width="3" stroke-miterlimit="10" stroke-linecap="round" stroke-linejoin="round"/>
<path d="M114.747 487.906C110.197 487.906 106.49 484.236 106.49 479.695C106.49 475.17 110.181 471.484 114.747 471.484C119.297 471.484 123.004 475.155 123.004 479.695C122.988 484.236 119.297 487.906 114.747 487.906Z" stroke="#04D361" stroke-width="3" stroke-miterlimit="10" stroke-linecap="round" stroke-linejoin="round"/>
<path d="M213.379 39.2468C213.379 40.8891 214.718 42.2205 216.37 42.2205C218.021 42.2205 219.36 40.8891 219.36 39.2468C219.36 37.6044 218.021 36.273 216.37 36.273C214.718 36.273 213.379 37.6044 213.379 39.2468Z" fill="#9871F5"/>
<path d="M213.379 60.02C213.379 61.6624 214.718 62.9938 216.37 62.9938C218.021 62.9938 219.36 61.6624 219.36 60.02C219.36 58.3776 218.021 57.0462 216.37 57.0462C214.718 57.0462 213.379 58.3776 213.379 60.02Z" fill="#9871F5"/>
<path d="M213.379 80.7744C213.379 82.4168 214.718 83.7482 216.37 83.7482C218.021 83.7482 219.36 82.4168 219.36 80.7744C219.36 79.1321 218.021 77.8006 216.37 77.8006C214.718 77.8006 213.379 79.1321 213.379 80.7744Z" fill="#9871F5"/>
<path d="M213.379 101.545C213.379 103.187 214.718 104.519 216.37 104.519C218.021 104.519 219.36 103.187 219.36 101.545C219.36 99.9024 218.021 98.571 216.37 98.571C214.718 98.571 213.379 99.9024 213.379 101.545Z" fill="#9871F5"/>
<path d="M213.379 122.301C213.379 123.944 214.718 125.275 216.37 125.275C218.021 125.275 219.36 123.944 219.36 122.301C219.36 120.659 218.021 119.327 216.37 119.327C214.718 119.327 213.379 120.659 213.379 122.301Z" fill="#9871F5"/>
<path d="M213.379 143.071C213.379 144.714 214.718 146.045 216.37 146.045C218.021 146.045 219.36 144.714 219.36 143.071C219.36 141.429 218.021 140.098 216.37 140.098C214.718 140.098 213.379 141.429 213.379 143.071Z" fill="#9871F5"/>
<path d="M192.506 39.247C192.506 40.8893 193.845 42.2208 195.496 42.2208C197.148 42.2208 198.487 40.8893 198.487 39.247C198.487 37.6046 197.148 36.2732 195.496 36.2732C193.845 36.2732 192.506 37.6046 192.506 39.247Z" fill="#9871F5"/>
<path d="M192.506 60.02C192.506 61.6624 193.845 62.9938 195.496 62.9938C197.148 62.9938 198.487 61.6624 198.487 60.02C198.487 58.3776 197.148 57.0462 195.496 57.0462C193.845 57.0462 192.506 58.3776 192.506 60.02Z" fill="#9871F5"/>
<path d="M192.506 80.7744C192.506 82.4168 193.845 83.7482 195.496 83.7482C197.148 83.7482 198.487 82.4168 198.487 80.7744C198.487 79.1321 197.148 77.8007 195.496 77.8007C193.845 77.8007 192.506 79.1321 192.506 80.7744Z" fill="#9871F5"/>
<path d="M192.506 101.545C192.506 103.187 193.845 104.519 195.496 104.519C197.148 104.519 198.487 103.187 198.487 101.545C198.487 99.9024 197.148 98.571 195.496 98.571C193.845 98.571 192.506 99.9024 192.506 101.545Z" fill="#9871F5"/>
<path d="M192.506 122.301C192.506 123.944 193.845 125.275 195.496 125.275C197.148 125.275 198.487 123.944 198.487 122.301C198.487 120.659 197.148 119.327 195.496 119.327C193.845 119.327 192.506 120.659 192.506 122.301Z" fill="#9871F5"/>
<path d="M192.506 143.071C192.506 144.714 193.845 146.045 195.496 146.045C197.148 146.045 198.487 144.714 198.487 143.071C198.487 141.429 197.148 140.098 195.496 140.098C193.845 140.098 192.506 141.429 192.506 143.071Z" fill="#9871F5"/>
<path d="M171.617 39.247C171.617 40.8893 172.956 42.2208 174.608 42.2208C176.259 42.2208 177.598 40.8893 177.598 39.247C177.598 37.6046 176.259 36.2732 174.608 36.2732C172.956 36.2732 171.617 37.6046 171.617 39.247Z" fill="#9871F5"/>
<path d="M171.617 60.02C171.617 61.6624 172.956 62.9938 174.608 62.9938C176.259 62.9938 177.598 61.6624 177.598 60.02C177.598 58.3776 176.259 57.0462 174.608 57.0462C172.956 57.0462 171.617 58.3776 171.617 60.02Z" fill="#9871F5"/>
<path d="M171.617 80.7744C171.617 82.4168 172.956 83.7482 174.608 83.7482C176.259 83.7482 177.598 82.4168 177.598 80.7744C177.598 79.1321 176.259 77.8007 174.608 77.8007C172.956 77.8007 171.617 79.1321 171.617 80.7744Z" fill="#9871F5"/>
<path d="M171.617 101.545C171.617 103.187 172.956 104.519 174.608 104.519C176.259 104.519 177.598 103.187 177.598 101.545C177.598 99.9024 176.259 98.571 174.608 98.571C172.956 98.571 171.617 99.9024 171.617 101.545Z" fill="#9871F5"/>
<path d="M171.617 122.301C171.617 123.944 172.956 125.275 174.608 125.275C176.259 125.275 177.598 123.944 177.598 122.301C177.598 120.659 176.259 119.327 174.608 119.327C172.956 119.327 171.617 120.659 171.617 122.301Z" fill="#9871F5"/>
<path d="M171.617 143.071C171.617 144.714 172.956 146.045 174.608 146.045C176.259 146.045 177.598 144.714 177.598 143.071C177.598 141.429 176.259 140.098 174.608 140.098C172.956 140.098 171.617 141.429 171.617 143.071Z" fill="#9871F5"/>
<path d="M150.744 39.247C150.744 40.8893 152.083 42.2208 153.735 42.2208C155.386 42.2208 156.725 40.8893 156.725 39.247C156.725 37.6046 155.386 36.2732 153.735 36.2732C152.083 36.2732 150.744 37.6046 150.744 39.247Z" fill="#9871F5"/>
<path d="M150.744 60.02C150.744 61.6624 152.083 62.9938 153.735 62.9938C155.386 62.9938 156.725 61.6624 156.725 60.02C156.725 58.3776 155.386 57.0462 153.735 57.0462C152.083 57.0462 150.744 58.3776 150.744 60.02Z" fill="#9871F5"/>
<path d="M150.744 80.7744C150.744 82.4168 152.083 83.7482 153.735 83.7482C155.386 83.7482 156.725 82.4168 156.725 80.7744C156.725 79.1321 155.386 77.8007 153.735 77.8007C152.083 77.8007 150.744 79.1321 150.744 80.7744Z" fill="#9871F5"/>
<path d="M150.744 101.545C150.744 103.187 152.083 104.519 153.735 104.519C155.386 104.519 156.725 103.187 156.725 101.545C156.725 99.9024 155.386 98.571 153.735 98.571C152.083 98.571 150.744 99.9024 150.744 101.545Z" fill="#9871F5"/>
<path d="M150.744 122.301C150.744 123.944 152.083 125.275 153.735 125.275C155.386 125.275 156.725 123.944 156.725 122.301C156.725 120.659 155.386 119.327 153.735 119.327C152.083 119.327 150.744 120.659 150.744 122.301Z" fill="#9871F5"/>
<path d="M150.744 143.071C150.744 144.714 152.083 146.045 153.735 146.045C155.386 146.045 156.725 144.714 156.725 143.071C156.725 141.429 155.386 140.098 153.735 140.098C152.083 140.098 150.744 141.429 150.744 143.071Z" fill="#9871F5"/>
<path d="M553.944 493.706C553.944 495.348 555.283 496.679 556.934 496.679C558.586 496.679 559.925 495.348 559.925 493.706C559.925 492.063 558.586 490.732 556.934 490.732C555.283 490.732 553.944 492.063 553.944 493.706Z" fill="#9871F5"/>
<path d="M553.945 514.461C553.945 516.103 555.284 517.434 556.935 517.434C558.587 517.434 559.926 516.103 559.926 514.461C559.926 512.818 558.587 511.487 556.935 511.487C555.284 511.487 553.945 512.818 553.945 514.461Z" fill="#9871F5"/>
<path d="M553.945 535.23C553.945 536.873 555.284 538.204 556.935 538.204C558.587 538.204 559.926 536.873 559.926 535.23C559.926 533.588 558.587 532.256 556.935 532.256C555.284 532.256 553.945 533.588 553.945 535.23Z" fill="#9871F5"/>
<path d="M533.056 493.704C533.056 495.346 534.395 496.677 536.046 496.677C537.698 496.677 539.037 495.346 539.037 493.704C539.037 492.061 537.698 490.73 536.046 490.73C534.395 490.73 533.056 492.061 533.056 493.704Z" fill="#9871F5"/>
<path d="M533.056 514.461C533.056 516.103 534.395 517.434 536.046 517.434C537.698 517.434 539.037 516.103 539.037 514.461C539.037 512.818 537.698 511.487 536.046 511.487C534.395 511.487 533.056 512.818 533.056 514.461Z" fill="#9871F5"/>
<path d="M533.056 535.229C533.056 536.871 534.395 538.202 536.046 538.202C537.698 538.202 539.037 536.871 539.037 535.229C539.037 533.586 537.698 532.255 536.046 532.255C534.395 532.255 533.056 533.586 533.056 535.229Z" fill="#9871F5"/>
<path d="M627.653 127.974C627.653 129.617 628.992 130.948 630.644 130.948C632.295 130.948 633.634 129.617 633.634 127.974C633.634 126.332 632.295 125.001 630.644 125.001C628.992 125.001 627.653 126.332 627.653 127.974Z" fill="#9871F5"/>
<path d="M627.654 148.728C627.654 150.37 628.993 151.702 630.644 151.702C632.296 151.702 633.635 150.37 633.635 148.728C633.635 147.086 632.296 145.754 630.644 145.754C628.993 145.754 627.654 147.086 627.654 148.728Z" fill="#9871F5"/>
<path d="M627.654 169.5C627.654 171.143 628.993 172.474 630.644 172.474C632.296 172.474 633.635 171.143 633.635 169.5C633.635 167.858 632.296 166.527 630.644 166.527C628.993 166.527 627.654 167.858 627.654 169.5Z" fill="#9871F5"/>
<path d="M606.765 127.974C606.765 129.616 608.104 130.948 609.755 130.948C611.407 130.948 612.746 129.616 612.746 127.974C612.746 126.331 611.407 125 609.755 125C608.104 125 606.765 126.331 606.765 127.974Z" fill="#9871F5"/>
<path d="M606.765 148.73C606.765 150.372 608.104 151.704 609.755 151.704C611.407 151.704 612.746 150.372 612.746 148.73C612.746 147.088 611.407 145.756 609.755 145.756C608.104 145.756 606.765 147.088 606.765 148.73Z" fill="#9871F5"/>
<path d="M606.765 169.5C606.765 171.143 608.104 172.474 609.755 172.474C611.407 172.474 612.746 171.143 612.746 169.5C612.746 167.858 611.407 166.526 609.755 166.526C608.104 166.526 606.765 167.858 606.765 169.5Z" fill="#9871F5"/>
<path d="M220.866 678.983C220.866 680.626 222.205 681.957 223.857 681.957C225.508 681.957 226.847 680.626 226.847 678.983C226.847 677.341 225.508 676.009 223.857 676.009C222.205 676.009 220.866 677.341 220.866 678.983Z" fill="#9871F5"/>
<path d="M199.977 678.983C199.977 680.626 201.316 681.957 202.968 681.957C204.619 681.957 205.958 680.626 205.958 678.983C205.958 677.341 204.619 676.009 202.968 676.009C201.316 676.009 199.977 677.341 199.977 678.983Z" fill="#9871F5"/>
<path d="M179.104 678.983C179.104 680.626 180.443 681.957 182.094 681.957C183.746 681.957 185.085 680.626 185.085 678.983C185.085 677.341 183.746 676.009 182.094 676.009C180.443 676.009 179.104 677.341 179.104 678.983Z" fill="#9871F5"/>
<path d="M158.215 678.983C158.215 680.626 159.554 681.957 161.205 681.957C162.857 681.957 164.196 680.626 164.196 678.983C164.196 677.341 162.857 676.009 161.205 676.009C159.554 676.009 158.215 677.341 158.215 678.983Z" fill="#9871F5"/>
<path d="M137.342 678.983C137.342 680.626 138.681 681.957 140.332 681.957C141.984 681.957 143.323 680.626 143.323 678.983C143.323 677.341 141.984 676.009 140.332 676.009C138.681 676.009 137.342 677.341 137.342 678.983Z" fill="#9871F5"/>
<path d="M116.453 678.983C116.453 680.626 117.792 681.957 119.443 681.957C121.095 681.957 122.434 680.626 122.434 678.983C122.434 677.341 121.095 676.009 119.443 676.009C117.792 676.009 116.453 677.341 116.453 678.983Z" fill="#9871F5"/>
<path d="M95.5796 678.983C95.5796 680.626 96.9185 681.957 98.5701 681.957C100.222 681.957 101.561 680.626 101.561 678.983C101.561 677.341 100.222 676.009 98.5701 676.009C96.9185 676.009 95.5796 677.341 95.5796 678.983Z" fill="#9871F5"/>
<path d="M220.866 658.212C220.866 659.854 222.205 661.186 223.857 661.186C225.508 661.186 226.847 659.854 226.847 658.212C226.847 656.57 225.508 655.238 223.857 655.238C222.205 655.238 220.866 656.57 220.866 658.212Z" fill="#9871F5"/>
<path d="M199.977 658.212C199.977 659.854 201.316 661.186 202.968 661.186C204.619 661.186 205.958 659.854 205.958 658.212C205.958 656.57 204.619 655.238 202.968 655.238C201.316 655.238 199.977 656.57 199.977 658.212Z" fill="#9871F5"/>
<path d="M179.104 658.212C179.104 659.854 180.443 661.186 182.094 661.186C183.746 661.186 185.085 659.854 185.085 658.212C185.085 656.57 183.746 655.238 182.094 655.238C180.443 655.238 179.104 656.57 179.104 658.212Z" fill="#9871F5"/>
<path d="M158.215 658.212C158.215 659.854 159.554 661.186 161.205 661.186C162.857 661.186 164.196 659.854 164.196 658.212C164.196 656.57 162.857 655.238 161.205 655.238C159.554 655.238 158.215 656.57 158.215 658.212Z" fill="#9871F5"/>
<path d="M137.342 658.212C137.342 659.854 138.681 661.186 140.332 661.186C141.984 661.186 143.323 659.854 143.323 658.212C143.323 656.57 141.984 655.238 140.332 655.238C138.681 655.238 137.342 656.57 137.342 658.212Z" fill="#9871F5"/>
<path d="M116.453 658.212C116.453 659.854 117.792 661.186 119.443 661.186C121.095 661.186 122.434 659.854 122.434 658.212C122.434 656.57 121.095 655.238 119.443 655.238C117.792 655.238 116.453 656.57 116.453 658.212Z" fill="#9871F5"/>
<path d="M95.5796 658.212C95.5796 659.854 96.9185 661.186 98.5701 661.186C100.222 661.186 101.561 659.854 101.561 658.212C101.561 656.57 100.222 655.238 98.5701 655.238C96.9185 655.238 95.5796 656.57 95.5796 658.212Z" fill="#9871F5"/>
<path d="M220.866 637.456C220.866 639.098 222.205 640.43 223.857 640.43C225.508 640.43 226.847 639.098 226.847 637.456C226.847 635.814 225.508 634.482 223.857 634.482C222.205 634.482 220.866 635.814 220.866 637.456Z" fill="#9871F5"/>
<path d="M199.977 637.456C199.977 639.098 201.316 640.43 202.968 640.43C204.619 640.43 205.958 639.098 205.958 637.456C205.958 635.814 204.619 634.482 202.968 634.482C201.316 634.482 199.977 635.814 199.977 637.456Z" fill="#9871F5"/>
<path d="M179.104 637.456C179.104 639.098 180.443 640.43 182.094 640.43C183.746 640.43 185.085 639.098 185.085 637.456C185.085 635.814 183.746 634.482 182.094 634.482C180.443 634.482 179.104 635.814 179.104 637.456Z" fill="#9871F5"/>
<path d="M158.215 637.456C158.215 639.098 159.554 640.43 161.205 640.43C162.857 640.43 164.196 639.098 164.196 637.456C164.196 635.814 162.857 634.482 161.205 634.482C159.554 634.482 158.215 635.814 158.215 637.456Z" fill="#9871F5"/>
<path d="M137.342 637.456C137.342 639.098 138.681 640.43 140.332 640.43C141.984 640.43 143.323 639.098 143.323 637.456C143.323 635.814 141.984 634.482 140.332 634.482C138.681 634.482 137.342 635.814 137.342 637.456Z" fill="#9871F5"/>
<path d="M116.453 637.456C116.453 639.098 117.792 640.43 119.443 640.43C121.095 640.43 122.434 639.098 122.434 637.456C122.434 635.814 121.095 634.482 119.443 634.482C117.792 634.482 116.453 635.814 116.453 637.456Z" fill="#9871F5"/>
<path d="M95.5796 637.456C95.5796 639.098 96.9185 640.43 98.5701 640.43C100.222 640.43 101.561 639.098 101.561 637.456C101.561 635.814 100.222 634.482 98.5701 634.482C96.9185 634.482 95.5796 635.814 95.5796 637.456Z" fill="#9871F5"/>
<path d="M220.864 616.686C220.864 618.328 222.203 619.66 223.855 619.66C225.506 619.66 226.845 618.328 226.845 616.686C226.845 615.043 225.506 613.712 223.855 613.712C222.203 613.712 220.864 615.043 220.864 616.686Z" fill="#9871F5"/>
<path d="M199.977 616.685C199.977 618.328 201.316 619.659 202.968 619.659C204.619 619.659 205.958 618.328 205.958 616.685C205.958 615.043 204.619 613.712 202.968 613.712C201.316 613.712 199.977 615.043 199.977 616.685Z" fill="#9871F5"/>
<path d="M179.104 616.685C179.104 618.328 180.443 619.659 182.094 619.659C183.746 619.659 185.085 618.328 185.085 616.685C185.085 615.043 183.746 613.712 182.094 613.712C180.443 613.712 179.104 615.043 179.104 616.685Z" fill="#9871F5"/>
<path d="M158.215 616.685C158.215 618.328 159.554 619.659 161.205 619.659C162.857 619.659 164.196 618.328 164.196 616.685C164.196 615.043 162.857 613.712 161.205 613.712C159.554 613.712 158.215 615.043 158.215 616.685Z" fill="#9871F5"/>
<path d="M137.342 616.685C137.342 618.328 138.681 619.659 140.332 619.659C141.984 619.659 143.323 618.328 143.323 616.685C143.323 615.043 141.984 613.712 140.332 613.712C138.681 613.712 137.342 615.043 137.342 616.685Z" fill="#9871F5"/>
<path d="M116.453 616.685C116.453 618.328 117.792 619.659 119.443 619.659C121.095 619.659 122.434 618.328 122.434 616.685C122.434 615.043 121.095 613.712 119.443 613.712C117.792 613.712 116.453 615.043 116.453 616.685Z" fill="#9871F5"/>
<path d="M95.5796 616.685C95.5796 618.328 96.9185 619.659 98.5701 619.659C100.222 619.659 101.561 618.328 101.561 616.685C101.561 615.043 100.222 613.712 98.5701 613.712C96.9185 613.712 95.5796 615.043 95.5796 616.685Z" fill="#9871F5"/>
</svg>
