<svg width="307" height="101" xmlns="http://www.w3.org/2000/svg">

 <g>
  <title>background</title>
  <rect fill="none" id="canvas_background" height="103" width="309" y="-1" x="-1"/>
 </g>
 <g>
  <title>Layer 1</title>
  <path id="svg_1" fill="white" d="m74.52803,6.37207l-51.9554,0c-13.8258,0 -20.8034,6.71123 -20.8034,20.00453l0,71.1456c0,1.7425 0.93593,2.8154 2.95235,2.8154l15.70535,0c1.8794,0 3.0893,-1.0729 3.0893,-2.8154l0,-2.7012c0,-6.5896 2.7773,-10.1811 9.6788,-10.8735l41.333,0c15.1651,0 22.0133,-6.5744 22.0133,-20.9404l0,-35.6946c0,-14.3661 -6.8482,-20.94043 -22.0133,-20.94043zm0.2891,50.59333c0,7.7918 -1.7653,9.3973 -11.0332,9.3973l-22.0133,0c-9.2604,0 -15.1727,3.0893 -18.262,9.131l0,-43.882c0,-6.0417 1.4761,-7.6549 8.857,-7.6549l31.4183,0c9.2679,0 11.0332,1.6132 11.0332,9.3974l0,23.6112z"/>
  <path id="svg_2" fill="white" d="m146.34323,45.7038c-11.946,0 -17.052,6.0417 -17.052,16.2456l0,35.8391c0,1.6132 -0.807,2.5491 -2.686,2.5491l-14.229,0c-1.88,0 -2.816,-0.9359 -2.816,-2.5491l0,-65.5072c0,-1.6132 0.936,-2.5567 2.816,-2.5567l11.946,0c1.75,0 2.686,0.9435 2.686,2.5567l0,10.5691c2.283,-8.7201 8.865,-13.1562 20.545,-13.1562l4.832,0c1.742,0 2.678,0.9435 2.678,2.5566l0,10.904c0,1.7425 -0.936,2.549 -2.678,2.549l-6.042,0z"/>
  <path id="svg_3" fill="white" d="m238.96223,81.1397c0,13.2932 -5.905,19.1979 -19.997,19.1979l-34.903,0c-13.963,0 -20.005,-5.9047 -20.005,-19.1979l0,-32.202c0,-13.2856 6.042,-19.1979 20.005,-19.1979l34.903,0c14.092,0 19.997,5.9123 19.997,19.1979l0,32.202zm-19.731,-27.1114c0,-6.9853 -1.339,-8.3245 -9.663,-8.3245l-15.98,0c-8.453,0 -9.8,1.3392 -9.8,8.3245l0,22.0133c0,6.9776 1.347,8.3244 9.8,8.3244l15.98,0c8.324,0 9.663,-1.3468 9.663,-8.3244l0,-22.0133z"/>
  <path id="svg_4" fill="white" d="m259.59846,45.7038l-6.719,0c-1.75,0 -2.686,-0.8065 -2.686,-2.549l0,-10.8735c0,-1.6132 0.936,-2.5567 2.686,-2.5567l6.712,0l0,-8.7201c0.007,-13.29322 6.985,-20.0045 20.811,-20.0045l16.512,0c1.879,0 2.686,0.94354 2.686,2.54907l0,10.87353c0,1.7501 -0.807,2.549 -2.686,2.549l-8.721,0c-7.388,0 -8.864,1.6132 -8.864,7.6548l0,5.0982l17.585,0c1.879,0 2.686,0.9435 2.686,2.5567l0,10.8735c0,1.7425 -0.807,2.549 -2.686,2.549l-17.585,0l0,52.0847c0,1.6132 -0.936,2.5491 -2.816,2.5491l-14.229,0c-1.879,0 -2.686,-0.9359 -2.686,-2.5491l0,-52.0847z"/>
 </g>
</svg>